<svg width="30" height="30" viewBox="0 0 30 30" fill="none" xmlns="http://www.w3.org/2000/svg">
<path d="M15 15C16.2979 15 17.5667 14.6151 18.6459 13.894C19.7251 13.1729 20.5663 12.148 21.063 10.9489C21.5597 9.74973 21.6896 8.43023 21.4364 7.15723C21.1832 5.88423 20.5582 4.7149 19.6404 3.79712C18.7226 2.87934 17.5533 2.25432 16.2803 2.00111C15.0073 1.74789 13.6878 1.87785 12.4886 2.37455C11.2895 2.87125 10.2646 3.71238 9.54348 4.79158C8.82238 5.87078 8.4375 7.13957 8.4375 8.43751C8.4375 10.178 9.1289 11.8472 10.3596 13.0779C11.5903 14.3086 13.2595 15 15 15ZM15 16.875C10.9324 16.875 2.8125 19.3875 2.8125 24.375V28.125H27.1875V24.375C27.1875 19.3875 19.0676 16.875 15 16.875Z" fill="#BCBCBC"/>
</svg>
