<svg width="30" height="30" viewBox="0 0 30 30" fill="none" xmlns="http://www.w3.org/2000/svg">
<path d="M18.5156 12.1875H16.1719C16.0424 12.1875 15.9375 12.2924 15.9375 12.4219V14.7656C15.9375 14.8951 16.0424 15 16.1719 15H18.5156C18.6451 15 18.75 14.8951 18.75 14.7656V12.4219C18.75 12.2924 18.6451 12.1875 18.5156 12.1875Z" fill="#BCBCBC"/>
<path d="M23.2031 12.1875H20.8594C20.7299 12.1875 20.625 12.2924 20.625 12.4219V14.7656C20.625 14.8951 20.7299 15 20.8594 15H23.2031C23.3326 15 23.4375 14.8951 23.4375 14.7656V12.4219C23.4375 12.2924 23.3326 12.1875 23.2031 12.1875Z" fill="#BCBCBC"/>
<path d="M18.5156 16.875H16.1719C16.0424 16.875 15.9375 16.9799 15.9375 17.1094V19.4531C15.9375 19.5826 16.0424 19.6875 16.1719 19.6875H18.5156C18.6451 19.6875 18.75 19.5826 18.75 19.4531V17.1094C18.75 16.9799 18.6451 16.875 18.5156 16.875Z" fill="#BCBCBC"/>
<path d="M23.2031 16.875H20.8594C20.7299 16.875 20.625 16.9799 20.625 17.1094V19.4531C20.625 19.5826 20.7299 19.6875 20.8594 19.6875H23.2031C23.3326 19.6875 23.4375 19.5826 23.4375 19.4531V17.1094C23.4375 16.9799 23.3326 16.875 23.2031 16.875Z" fill="#BCBCBC"/>
<path d="M9.14062 16.875H6.79688C6.66743 16.875 6.5625 16.9799 6.5625 17.1094V19.4531C6.5625 19.5826 6.66743 19.6875 6.79688 19.6875H9.14062C9.27007 19.6875 9.375 19.5826 9.375 19.4531V17.1094C9.375 16.9799 9.27007 16.875 9.14062 16.875Z" fill="#BCBCBC"/>
<path d="M13.8281 16.875H11.4844C11.3549 16.875 11.25 16.9799 11.25 17.1094V19.4531C11.25 19.5826 11.3549 19.6875 11.4844 19.6875H13.8281C13.9576 19.6875 14.0625 19.5826 14.0625 19.4531V17.1094C14.0625 16.9799 13.9576 16.875 13.8281 16.875Z" fill="#BCBCBC"/>
<path d="M9.14062 21.5625H6.79688C6.66743 21.5625 6.5625 21.6674 6.5625 21.7969V24.1406C6.5625 24.2701 6.66743 24.375 6.79688 24.375H9.14062C9.27007 24.375 9.375 24.2701 9.375 24.1406V21.7969C9.375 21.6674 9.27007 21.5625 9.14062 21.5625Z" fill="#BCBCBC"/>
<path d="M13.8281 21.5625H11.4844C11.3549 21.5625 11.25 21.6674 11.25 21.7969V24.1406C11.25 24.2701 11.3549 24.375 11.4844 24.375H13.8281C13.9576 24.375 14.0625 24.2701 14.0625 24.1406V21.7969C14.0625 21.6674 13.9576 21.5625 13.8281 21.5625Z" fill="#BCBCBC"/>
<path d="M18.5156 21.5625H16.1719C16.0424 21.5625 15.9375 21.6674 15.9375 21.7969V24.1406C15.9375 24.2701 16.0424 24.375 16.1719 24.375H18.5156C18.6451 24.375 18.75 24.2701 18.75 24.1406V21.7969C18.75 21.6674 18.6451 21.5625 18.5156 21.5625Z" fill="#BCBCBC"/>
<path d="M26.25 3.75H23.4375V1.875H21.0938V3.75H8.90625V1.875H6.5625V3.75H3.75C3.25272 3.75 2.77581 3.94754 2.42417 4.29917C2.07254 4.65081 1.875 5.12772 1.875 5.625V26.25C1.875 26.7473 2.07254 27.2242 2.42417 27.5758C2.77581 27.9275 3.25272 28.125 3.75 28.125H26.25C26.7473 28.125 27.2242 27.9275 27.5758 27.5758C27.9275 27.2242 28.125 26.7473 28.125 26.25V5.625C28.125 5.12772 27.9275 4.65081 27.5758 4.29917C27.2242 3.94754 26.7473 3.75 26.25 3.75ZM25.5469 25.5469H4.45312V10.3125H25.5469V25.5469Z" fill="#BCBCBC"/>
</svg>
