<svg width="40" height="40" viewBox="0 0 40 40" fill="none" xmlns="http://www.w3.org/2000/svg">
<path d="M35.568 2.5H4.43203C3.91969 2.50021 3.42839 2.70383 3.06611 3.06611C2.70383 3.42839 2.50021 3.91969 2.5 4.43203V35.568C2.50021 36.0803 2.70383 36.5716 3.06611 36.9339C3.42839 37.2962 3.91969 37.4998 4.43203 37.5H20V23.75H15.8164V18.75H20V14.7656C20 10.2453 23.1352 7.78438 27.1734 7.78438C29.1055 7.78438 31.1836 7.92969 31.6664 7.99375V12.7148H28.4492C26.2523 12.7148 25.8336 13.7539 25.8336 15.2852V18.75H31.068L30.3844 23.75H25.8336V37.5H35.568C36.0803 37.4998 36.5716 37.2962 36.9339 36.9339C37.2962 36.5716 37.4998 36.0803 37.5 35.568V4.43203C37.4998 3.91969 37.2962 3.42839 36.9339 3.06611C36.5716 2.70383 36.0803 2.50021 35.568 2.5Z" fill="#086972"/>
</svg>
