<svg width="60" height="61" viewBox="0 0 60 61" fill="none" xmlns="http://www.w3.org/2000/svg">
<path d="M30.2643 20.1741L30.2643 20.1741C30.0689 17.3883 30.9122 14.8537 32.61 13.0163C34.3093 11.1774 36.6908 10.1764 39.3749 10.1764C42.0366 10.1764 44.4258 11.1946 46.1208 13.0303L46.1208 13.0303C47.8315 14.8831 48.6758 17.4134 48.4808 20.1724C48.2927 22.7952 47.2539 25.2452 45.5654 27.0748C43.8295 28.9543 41.6294 29.9677 39.3749 29.9677C37.1216 29.9677 34.9202 28.9544 33.1794 27.0756C31.4873 25.2435 30.4477 22.7926 30.2643 20.1741Z" stroke="#17B978"/>
<path d="M54.8265 50.7591H54.8239L23.9274 50.7591L23.9247 50.7591C23.5051 50.7613 23.0904 50.6665 22.7126 50.4818C22.3355 50.2974 22.0049 50.0283 21.7464 49.6948C21.4686 49.3271 21.2765 48.9007 21.1848 48.4473C21.0929 47.9931 21.1041 47.5237 21.2176 47.0744L21.2183 47.0719C22.1724 43.2098 24.534 40.0039 28.0665 37.7979C31.2068 35.8376 35.2227 34.748 39.375 34.748C43.6129 34.748 47.521 35.7914 50.6791 37.7502L50.6792 37.7503C54.2173 39.9435 56.5826 43.1666 57.5325 47.0771L57.5333 47.08C57.6454 47.5297 57.6554 47.9992 57.5624 48.4534C57.4696 48.9066 57.2768 49.3327 56.9984 49.6999C56.7402 50.0319 56.4105 50.2996 56.0345 50.4831C55.6578 50.6669 55.2446 50.7612 54.8265 50.7591Z" stroke="#17B978"/>
<path d="M17.2266 30.9403C13.1027 30.9403 9.47696 27.075 9.14064 22.3248C8.97423 19.8913 9.72657 17.6409 11.25 15.9906C12.757 14.3568 14.8828 13.4566 17.2266 13.4566C19.5703 13.4566 21.6797 14.3615 23.1949 16.0048C24.7301 17.6681 25.4801 19.9138 25.3043 22.3272C24.968 27.0761 21.3434 30.9403 17.2266 30.9403Z" fill="#17B978"/>
<path d="M24.9212 34.6555C22.8599 33.6396 20.1845 33.1316 17.2278 33.1316C13.7755 33.1316 10.4228 34.0389 7.78605 35.6857C4.7966 37.5557 2.78566 40.2786 1.97355 43.5663C1.8547 44.0392 1.84346 44.533 1.94067 45.0109C2.03787 45.4887 2.24101 45.9383 2.53488 46.3258C2.81372 46.6867 3.17095 46.9783 3.5791 47.1782C3.98724 47.378 4.43542 47.4809 4.88917 47.4788H17.897C18.1165 47.4788 18.3291 47.4011 18.4977 47.2593C18.6662 47.1174 18.78 46.9204 18.8193 46.7027C18.8321 46.6283 18.8485 46.5538 18.8673 46.4806C19.861 42.457 22.1896 39.0572 25.6302 36.5787C25.7567 36.4868 25.8585 36.3644 25.9263 36.2228C25.9941 36.0812 26.0258 35.9247 26.0185 35.7677C26.0111 35.6106 25.965 35.4578 25.8843 35.3233C25.8036 35.1887 25.6909 35.0765 25.5564 34.9969C25.3724 34.8883 25.1614 34.7737 24.9212 34.6555Z" fill="#17B978"/>
</svg>
