<svg width="30" height="30" viewBox="0 0 30 30" fill="none" xmlns="http://www.w3.org/2000/svg">
<path d="M9.84375 0.9375H5.15625C4.89737 0.9375 4.6875 1.14737 4.6875 1.40625V6.09375C4.6875 6.35263 4.89737 6.5625 5.15625 6.5625H9.84375C10.1026 6.5625 10.3125 6.35263 10.3125 6.09375V1.40625C10.3125 1.14737 10.1026 0.9375 9.84375 0.9375Z" fill="#BCBCBC"/>
<path d="M17.3438 0.9375H12.6562C12.3974 0.9375 12.1875 1.14737 12.1875 1.40625V6.09375C12.1875 6.35263 12.3974 6.5625 12.6562 6.5625H17.3438C17.6026 6.5625 17.8125 6.35263 17.8125 6.09375V1.40625C17.8125 1.14737 17.6026 0.9375 17.3438 0.9375Z" fill="#BCBCBC"/>
<path d="M24.8438 0.9375H20.1562C19.8974 0.9375 19.6875 1.14737 19.6875 1.40625V6.09375C19.6875 6.35263 19.8974 6.5625 20.1562 6.5625H24.8438C25.1026 6.5625 25.3125 6.35263 25.3125 6.09375V1.40625C25.3125 1.14737 25.1026 0.9375 24.8438 0.9375Z" fill="#BCBCBC"/>
<path d="M9.84375 8.4375H5.15625C4.89737 8.4375 4.6875 8.64737 4.6875 8.90625V13.5938C4.6875 13.8526 4.89737 14.0625 5.15625 14.0625H9.84375C10.1026 14.0625 10.3125 13.8526 10.3125 13.5938V8.90625C10.3125 8.64737 10.1026 8.4375 9.84375 8.4375Z" fill="#BCBCBC"/>
<path d="M17.3438 8.4375H12.6562C12.3974 8.4375 12.1875 8.64737 12.1875 8.90625V13.5938C12.1875 13.8526 12.3974 14.0625 12.6562 14.0625H17.3438C17.6026 14.0625 17.8125 13.8526 17.8125 13.5938V8.90625C17.8125 8.64737 17.6026 8.4375 17.3438 8.4375Z" fill="#BCBCBC"/>
<path d="M24.8438 8.4375H20.1562C19.8974 8.4375 19.6875 8.64737 19.6875 8.90625V13.5938C19.6875 13.8526 19.8974 14.0625 20.1562 14.0625H24.8438C25.1026 14.0625 25.3125 13.8526 25.3125 13.5938V8.90625C25.3125 8.64737 25.1026 8.4375 24.8438 8.4375Z" fill="#BCBCBC"/>
<path d="M9.84375 15.9375H5.15625C4.89737 15.9375 4.6875 16.1474 4.6875 16.4062V21.0938C4.6875 21.3526 4.89737 21.5625 5.15625 21.5625H9.84375C10.1026 21.5625 10.3125 21.3526 10.3125 21.0938V16.4062C10.3125 16.1474 10.1026 15.9375 9.84375 15.9375Z" fill="#BCBCBC"/>
<path d="M17.3438 15.9375H12.6562C12.3974 15.9375 12.1875 16.1474 12.1875 16.4062V21.0938C12.1875 21.3526 12.3974 21.5625 12.6562 21.5625H17.3438C17.6026 21.5625 17.8125 21.3526 17.8125 21.0938V16.4062C17.8125 16.1474 17.6026 15.9375 17.3438 15.9375Z" fill="#BCBCBC"/>
<path d="M17.3438 23.4375H12.6562C12.3974 23.4375 12.1875 23.6474 12.1875 23.9062V28.5938C12.1875 28.8526 12.3974 29.0625 12.6562 29.0625H17.3438C17.6026 29.0625 17.8125 28.8526 17.8125 28.5938V23.9062C17.8125 23.6474 17.6026 23.4375 17.3438 23.4375Z" fill="#BCBCBC"/>
<path d="M24.8438 15.9375H20.1562C19.8974 15.9375 19.6875 16.1474 19.6875 16.4062V21.0938C19.6875 21.3526 19.8974 21.5625 20.1562 21.5625H24.8438C25.1026 21.5625 25.3125 21.3526 25.3125 21.0938V16.4062C25.3125 16.1474 25.1026 15.9375 24.8438 15.9375Z" fill="#BCBCBC"/>
</svg>
