<svg width="40" height="40" viewBox="0 0 40 40" fill="none" xmlns="http://www.w3.org/2000/svg">
<path d="M27.2914 5.41641C29.2236 5.42218 31.0751 6.19231 32.4414 7.55861C33.8077 8.92491 34.5778 10.7764 34.5836 12.7086V27.2914C34.5778 29.2236 33.8077 31.0751 32.4414 32.4414C31.0751 33.8077 29.2236 34.5778 27.2914 34.5836H12.7086C10.7764 34.5778 8.92491 33.8077 7.55861 32.4414C6.19231 31.0751 5.42218 29.2236 5.41641 27.2914V12.7086C5.42218 10.7764 6.19231 8.92491 7.55861 7.55861C8.92491 6.19231 10.7764 5.42218 12.7086 5.41641H27.2914ZM27.2914 2.5H12.7086C7.09375 2.5 2.5 7.09375 2.5 12.7086V27.2914C2.5 32.9062 7.09375 37.5 12.7086 37.5H27.2914C32.9062 37.5 37.5 32.9062 37.5 27.2914V12.7086C37.5 7.09375 32.9062 2.5 27.2914 2.5Z" fill="#086972"/>
<path d="M29.4789 12.7086C29.0462 12.7086 28.6233 12.5803 28.2636 12.34C27.9038 12.0996 27.6235 11.758 27.4579 11.3582C27.2923 10.9585 27.249 10.5187 27.3334 10.0944C27.4178 9.67003 27.6262 9.28025 27.9321 8.97432C28.238 8.6684 28.6278 8.46006 29.0521 8.37565C29.4765 8.29125 29.9163 8.33457 30.316 8.50013C30.7157 8.6657 31.0574 8.94608 31.2977 9.30581C31.5381 9.66554 31.6664 10.0885 31.6664 10.5211C31.667 10.8086 31.6108 11.0933 31.5011 11.359C31.3914 11.6247 31.2303 11.866 31.0271 12.0693C30.8238 12.2726 30.5824 12.4337 30.3167 12.5434C30.0511 12.6531 29.7663 12.7092 29.4789 12.7086Z" fill="#086972"/>
<path d="M20 14.1664C21.1538 14.1664 22.2816 14.5085 23.241 15.1495C24.2003 15.7905 24.948 16.7016 25.3895 17.7676C25.8311 18.8335 25.9466 20.0065 25.7215 21.1381C25.4964 22.2697 24.9408 23.3091 24.125 24.125C23.3091 24.9408 22.2697 25.4964 21.1381 25.7215C20.0065 25.9466 18.8335 25.8311 17.7676 25.3895C16.7016 24.948 15.7905 24.2003 15.1495 23.241C14.5085 22.2816 14.1664 21.1538 14.1664 20C14.1681 18.4533 14.7832 16.9705 15.8769 15.8769C16.9705 14.7832 18.4533 14.1681 20 14.1664ZM20 11.25C18.2694 11.25 16.5777 11.7632 15.1388 12.7246C13.6998 13.6861 12.5783 15.0527 11.9161 16.6515C11.2538 18.2504 11.0805 20.0097 11.4181 21.707C11.7558 23.4044 12.5891 24.9635 13.8128 26.1872C15.0365 27.4109 16.5956 28.2442 18.293 28.5819C19.9903 28.9195 21.7496 28.7462 23.3485 28.0839C24.9473 27.4217 26.3139 26.3002 27.2753 24.8612C28.2368 23.4223 28.75 21.7306 28.75 20C28.75 17.6794 27.8281 15.4538 26.1872 13.8128C24.5462 12.1719 22.3206 11.25 20 11.25Z" fill="#086972"/>
</svg>
