<svg width="100" height="101" viewBox="0 0 100 101" fill="none" xmlns="http://www.w3.org/2000/svg">
<g clip-path="url(#clip0)">
<path d="M99.9805 50.393C99.9805 22.5615 77.5989 3.05176e-05 49.9906 3.05176e-05C22.3809 3.05176e-05 0 22.5615 0 50.393C0 56.4384 1.05714 62.2344 2.99348 67.6044C1.09223 70.8726 0 74.6775 0 78.7393C0 87.5337 5.10929 95.1249 12.4982 98.6634V58.8153C10.5323 59.7563 8.73083 60.9868 7.14184 62.4473C6.55688 59.5713 6.24861 56.593 6.24861 53.5426C6.24861 29.1904 25.8326 9.44858 49.9906 9.44858C74.1478 9.44858 93.732 29.1904 93.732 53.5426C93.732 56.593 93.4241 59.5713 92.8387 62.4473C91.2493 60.9868 89.4485 59.7563 87.4827 58.8153V98.6634C94.8722 95.1249 99.9805 87.5337 99.9805 78.7393C99.9805 74.6775 98.8884 70.8726 96.9868 67.6044C98.9229 62.2344 99.9805 56.4384 99.9805 50.393ZM74.9853 56.6915V100.787H78.1098C79.1703 100.787 80.2132 100.708 81.2342 100.562V56.917C80.2132 56.77 79.1703 56.6915 78.1098 56.6915H74.9853ZM18.7464 56.917V100.562C19.7674 100.709 20.8095 100.787 21.8707 100.787H24.995V56.6915H21.8707C20.8095 56.6915 19.7674 56.77 18.7464 56.917Z" fill="#086972"/>
<path d="M34.7508 81.0723V72.4317C34.7508 71.238 33.7914 70.2716 32.6075 70.2716C31.4235 70.2716 30.4646 71.238 30.4646 72.4317V81.0723C30.4646 82.266 31.4235 83.2328 32.6075 83.2328C33.7914 83.2328 34.7508 82.266 34.7508 81.0723Z" fill="#17B978"/>
<path d="M41.6567 90.0751V64.8709C41.6567 63.6775 40.6973 62.7104 39.5131 62.7104C38.3297 62.7104 37.3704 63.6775 37.3704 64.8709V90.0751C37.3704 91.2674 38.3297 92.2353 39.5131 92.2353C40.6973 92.2353 41.6567 91.2674 41.6567 90.0751Z" fill="#A7FF83"/>
<path d="M48.5625 86.3536V72.4317C48.5625 71.238 47.6031 70.2716 46.4192 70.2716C45.2358 70.2716 44.2764 71.238 44.2764 72.4317V86.3536C44.2764 87.5481 45.2358 88.5141 46.4192 88.5141C47.6031 88.5141 48.5625 87.5481 48.5625 86.3536Z" fill="#17B978"/>
<path d="M67.373 74.5922C66.1891 74.5922 65.2297 75.5594 65.2297 76.752V88.7563C65.2297 89.9482 66.1891 90.9164 67.373 90.9164C68.5568 90.9164 69.5162 89.9482 69.5162 88.7563V76.752C69.5162 75.5594 68.5568 74.5922 67.373 74.5922Z" fill="#A7FF83"/>
<path d="M60.4679 59.4697C59.2845 59.4697 58.3247 60.4365 58.3247 61.6295V94.3958C58.3247 95.5888 59.2845 96.5559 60.4679 96.5559C61.6522 96.5559 62.6116 95.5888 62.6116 94.3958V61.6295C62.6116 60.4365 61.651 59.4697 60.4679 59.4697Z" fill="#17B978"/>
<path d="M53.5623 90.9164C54.7461 90.9164 55.7051 89.9482 55.7051 88.7563V67.931C55.7051 66.738 54.7461 65.7701 53.5623 65.7701C52.3788 65.7701 51.4194 66.738 51.4194 67.931V88.7563C51.4194 89.9482 52.3788 90.9164 53.5623 90.9164Z" fill="#A7FF83"/>
</g>
<defs>
<clipPath id="clip0">
<rect width="100" height="100.806" fill="white"/>
</clipPath>
</defs>
</svg>
