<svg width="49" height="50" viewBox="0 0 49 50" fill="none" xmlns="http://www.w3.org/2000/svg">
<path d="M48.75 45.1404L34.2094 30.4801C36.5527 27.234 37.8132 23.3218 37.8094 19.3071C37.8094 8.79925 29.3285 0.25 18.9047 0.25C8.48086 0.25 0 8.79925 0 19.3071C0 29.815 8.48086 38.3643 18.9047 38.3643C22.8872 38.3682 26.7681 37.0974 29.9883 34.7353L44.5312 49.3931L48.75 45.1404ZM18.9047 32.3454C16.3463 32.3457 13.8452 31.5811 11.7179 30.1484C9.5905 28.7157 7.93239 26.6792 6.95321 24.2965C5.97404 21.9138 5.71778 19.2919 6.21685 16.7624C6.71592 14.2329 7.94789 11.9093 9.75698 10.0857C11.5661 8.26199 13.871 7.02008 16.3803 6.51698C18.8896 6.01389 21.4905 6.27221 23.8541 7.25929C26.2178 8.24636 28.238 9.91785 29.6592 12.0624C31.0804 14.2069 31.8389 16.7281 31.8387 19.3071C31.8346 22.7639 30.4707 26.0778 28.0459 28.5221C25.6212 30.9664 22.3338 32.3414 18.9047 32.3454Z" fill="#17B978"/>
</svg>
